# xmcd
#
# Track frame offsets: 
#        183
#        16228
#        30045
#        43618
#        58145
#        67533
#        80078
#        97283
#        112183
#        127113
#        144703
#        162173
#        178355
#        196620
#        212990
#        226408
#        243065
#        260080
#        272975
#        289830
#
# Disc length: 4076 seconds
#
# Revision: 2
# Processed by: cddbd v1.5.2PL0 Copyright (c) Steve Scherf et al.
# Submitted via: ExactAudioCopy v0.90b4
#
DISCID=2a0fea14
DTITLE=Philippe Dubois - An Hour Of Golden Flute Favourites
DYEAR=1990
DGENRE=
TTITLE0=Somewhere
TTITLE1=Out Of Africa
TTITLE2=Annie's Song
TTITLE3=Let It Be
TTITLE4=Eleanor Rigby
TTITLE5=El Condor Pasa
TTITLE6=Sorry Seems To Be The Hardest Word
TTITLE7=Nights In White Satin
TTITLE8=Pipes Of Peace
TTITLE9=Love Letters
TTITLE10=Bright Eyes
TTITLE11=Like A Virgin
TTITLE12=Tonight
TTITLE13=Woman In Love
TTITLE14=Lucy In The Sky With Diamonds
TTITLE15=Time After Time
TTITLE16=People
TTITLE17=Happy Together
TTITLE18=I Just Can't Stop Loving You
TTITLE19=Something
EXTD=
EXTT0=
EXTT1=
EXTT2=
EXTT3=
EXTT4=
EXTT5=
EXTT6=
EXTT7=
EXTT8=
EXTT9=
EXTT10=
EXTT11=
EXTT12=
EXTT13=
EXTT14=
EXTT15=
EXTT16=
EXTT17=
EXTT18=
EXTT19=
PLAYORDER=
